<svg xmlns="http://www.w3.org/2000/svg"><symbol id="iconmonstr-instagram-11" viewBox="0 0 24 24"><path d="M12 2.163c3.204 0 3.584.012 4.85.07 3.252.148 4.771 1.691 4.919 4.919.058 1.265.069 1.645.069 4.849 0 3.205-.012 3.584-.069 4.849-.149 3.225-1.664 4.771-4.919 4.919-1.266.058-1.644.07-4.85.07-3.204 0-3.584-.012-4.849-.07-3.26-.149-4.771-1.699-4.919-4.92-.058-1.265-.07-1.644-.07-4.849 0-3.204.013-3.583.07-4.849.149-3.227 1.664-4.771 4.919-4.919 1.266-.057 1.645-.069 4.849-.069zM12 0C8.741 0 8.333.014 7.053.072 2.695.272.273 2.69.073 7.052.014 8.333 0 8.741 0 12c0 3.259.014 3.668.072 4.948.2 4.358 2.618 6.78 6.98 6.98C8.333 23.986 8.741 24 12 24c3.259 0 3.668-.014 4.948-.072 4.354-.2 6.782-2.618 6.979-6.98.059-1.28.073-1.689.073-4.948 0-3.259-.014-3.667-.072-4.947-.196-4.354-2.617-6.78-6.979-6.98C15.668.014 15.259 0 12 0zm0 5.838a6.162 6.162 0 1 0 0 12.324 6.162 6.162 0 0 0 0-12.324zM12 16a4 4 0 1 1 0-8 4 4 0 0 1 0 8zm6.406-11.845a1.44 1.44 0 1 0 0 2.881 1.44 1.44 0 0 0 0-2.881z"/></symbol><symbol id="iconmonstr-facebook-3" viewBox="0 0 24 24"><path d="M19 0H5a5 5 0 0 0-5 5v14a5 5 0 0 0 5 5h14a5 5 0 0 0 5-5V5a5 5 0 0 0-5-5zm-3 7h-1.924C13.461 7 13 7.252 13 7.889V9h3l-.238 3H13v8h-3v-8H8V9h2V7.077C10 5.055 11.064 4 13.461 4H16v3z"/></symbol><symbol id="iconmonstr-menu-1" viewBox="0 0 24 24"><path d="M24 6H0V2h24v4zm0 4H0v4h24v-4zm0 8H0v4h24v-4z"/></symbol><symbol id="iconmonstr-twitter-3" viewBox="0 0 24 24"><path d="M19 0H5a5 5 0 0 0-5 5v14a5 5 0 0 0 5 5h14a5 5 0 0 0 5-5V5a5 5 0 0 0-5-5zm-.139 9.237c.209 4.617-3.234 9.765-9.33 9.765a9.286 9.286 0 0 1-5.032-1.475 6.605 6.605 0 0 0 4.86-1.359 3.285 3.285 0 0 1-3.066-2.28 3.3 3.3 0 0 0 1.482-.056c-1.579-.317-2.668-1.739-2.633-3.26.442.246.949.394 1.486.411A3.289 3.289 0 0 1 5.612 6.6a9.32 9.32 0 0 0 6.766 3.43 3.286 3.286 0 0 1 5.594-2.993 6.583 6.583 0 0 0 2.086-.796 3.296 3.296 0 0 1-1.443 1.816A6.578 6.578 0 0 0 20.5 7.54a6.66 6.66 0 0 1-1.639 1.697z"/></symbol><symbol id="iconmonstr-shopping-cart-3" viewBox="0 0 24 24"><path d="M10 19.5a1.5 1.5 0 1 1-3 0 1.5 1.5 0 0 1 3 0zm3.5-1.5a1.5 1.5 0 1 0 0 3 1.5 1.5 0 0 0 0-3zm1.336-5l1.977-7H0l2.938 7h11.898zm4.969-10l-3.432 12H3.776l.839 2h13.239l3.474-12h1.929L24 3h-4.195z"/></symbol><symbol id="iconmonstr-x-mark-1" viewBox="0 0 24 24"><path d="M24 20.188l-8.315-8.209 8.2-8.282L20.188 0l-8.212 8.318L3.666.115 0 3.781l8.321 8.24-8.206 8.313L3.781 24l8.237-8.318 8.285 8.203z"/></symbol></svg>