<svg xmlns="http://www.w3.org/2000/svg"><symbol id="cart" viewBox="0 0 24 24"><path d="M24 3l-.743 2h-1.929l-3.474 12H4.615L0 6h16.812l-.564 2H3.008l2.937 7h10.428l3.432-12H24zM8.5 18a1.5 1.5 0 1 0 .001 3.001A1.5 1.5 0 0 0 8.5 18zm6.9-7l-1.9 7a1.5 1.5 0 1 0 0 3 1.5 1.5 0 0 0 0-3z"/></symbol><symbol id="logo" viewBox="0 0 360.5 361.1"><circle cx="180.3" cy="180.5" r="161.9" fill="#be1e2d" stroke="#642c37" stroke-miterlimit="10" stroke-width="13"/><rect width="231.6" height="129.44" x="64.5" y="98.8" fill="#bcbec0" stroke="#58595b" stroke-miterlimit="10" stroke-width="4" rx="12"/><path fill="#f1f2f2" d="M104.3 131.7h14.9v54.66h-14.9z"/><path fill="#f1f2f2" d="M139.1 151.6v14.9H84.44v-14.9z"/><circle cx="249.7" cy="139.8" r="8.4" fill="#d7df23"/><circle cx="228.1" cy="159.1" r="8.4" fill="#39b54a"/><circle cx="269.9" cy="159.1" r="8.4" fill="#f7941d"/><circle cx="249.6" cy="176.9" r="8.4" fill="#00aeef"/><path fill="#58595b" d="M174 24.8h13.3v73.99H174z"/><path fill="#fff" d="M87.5 258.3v-5h9.8v14.6a19.4 19.4 0 0 1-8.7 1.7c-8.4 0-13.7-5.7-13.7-14.8s5.5-14.7 13.7-14.7c5.5 0 7.7 1.4 7.7 1.4v6.1a15.3 15.3 0 0 0-6.6-1.5c-4.5 0-7.6 2.9-7.6 8.7s2.6 8.8 6.8 8.8a10.9 10.9 0 0 0 2.4-.4v-4.9zm21 6.5l-1.2 4.2h-7.2l8.8-28.4h7.4l8.8 28.4h-7.2l-1.2-4.2zm1.3-5.3h5.6l-2.7-10.2zm42.7 9.5l-.8-15.5.2-1.9-5.4 17.4h-5.2l-5.4-17.1.2 1.6-.7 15.5H128l2.6-28.4h7.4l5.8 18.6 5.9-18.6h7.4l2.5 28.4zm11.5 0v-28.4h17.6v6h-10.7v5.5h9.4v5.4h-9.4v5.6h10.8v5.9zm33.9-22.4V269H191v-22.4h-6.4v-6h19.7v6zm18.8 12.1h-2.2V269h-6.9v-28.4h9.3c6.7 0 10.7 3.4 10.7 9.1a8.1 8.1 0 0 1-5.1 8l.8.9L229 269h-7.7zm0-4.6a3.5 3.5 0 0 0 3.8-3.8c0-2.3-1.3-3.7-3.5-3.7h-2.7v7.5zm14.4.7c0-9.3 5.7-14.7 13.3-14.7s13.3 5.4 13.3 14.7-5.7 14.8-13.3 14.8-13.3-5.4-13.3-14.8zm7.3 0c0 5.6 2.5 8.5 6.1 8.5s6-2.9 6-8.5-2.5-8.4-6-8.4-6.1 2.9-6.1 8.4zm46.4 14.2h-6.5l-10.1-17.3.3 2V269h-6.9v-28.4h6.6l10 17.3-.3-1.9v-15.4h6.9z"/></symbol><symbol id="iconmonstr-instagram-11" viewBox="0 0 24 24"><path d="M12 2.163c3.204 0 3.584.012 4.85.07 3.252.148 4.771 1.691 4.919 4.919.058 1.265.069 1.645.069 4.849 0 3.205-.012 3.584-.069 4.849-.149 3.225-1.664 4.771-4.919 4.919-1.266.058-1.644.07-4.85.07-3.204 0-3.584-.012-4.849-.07-3.26-.149-4.771-1.699-4.919-4.92-.058-1.265-.07-1.644-.07-4.849 0-3.204.013-3.583.07-4.849.149-3.227 1.664-4.771 4.919-4.919 1.266-.057 1.645-.069 4.849-.069zM12 0C8.741 0 8.333.014 7.053.072 2.695.272.273 2.69.073 7.052.014 8.333 0 8.741 0 12c0 3.259.014 3.668.072 4.948.2 4.358 2.618 6.78 6.98 6.98C8.333 23.986 8.741 24 12 24c3.259 0 3.668-.014 4.948-.072 4.354-.2 6.782-2.618 6.979-6.98.059-1.28.073-1.689.073-4.948 0-3.259-.014-3.667-.072-4.947-.196-4.354-2.617-6.78-6.979-6.98C15.668.014 15.259 0 12 0zm0 5.838a6.162 6.162 0 1 0 0 12.324 6.162 6.162 0 0 0 0-12.324zM12 16a4 4 0 1 1 0-8 4 4 0 0 1 0 8zm6.406-11.845a1.44 1.44 0 1 0 0 2.881 1.44 1.44 0 0 0 0-2.881z"/></symbol><symbol id="iconmonstr-facebook-3" viewBox="0 0 24 24"><path d="M19 0H5a5 5 0 0 0-5 5v14a5 5 0 0 0 5 5h14a5 5 0 0 0 5-5V5a5 5 0 0 0-5-5zm-3 7h-1.924C13.461 7 13 7.252 13 7.889V9h3l-.238 3H13v8h-3v-8H8V9h2V7.077C10 5.055 11.064 4 13.461 4H16v3z"/></symbol><symbol id="iconmonstr-menu-1" viewBox="0 0 24 24"><path d="M24 6H0V2h24v4zm0 4H0v4h24v-4zm0 8H0v4h24v-4z"/></symbol><symbol id="iconmonstr-twitter-3" viewBox="0 0 24 24"><path d="M19 0H5a5 5 0 0 0-5 5v14a5 5 0 0 0 5 5h14a5 5 0 0 0 5-5V5a5 5 0 0 0-5-5zm-.139 9.237c.209 4.617-3.234 9.765-9.33 9.765a9.286 9.286 0 0 1-5.032-1.475 6.605 6.605 0 0 0 4.86-1.359 3.285 3.285 0 0 1-3.066-2.28 3.3 3.3 0 0 0 1.482-.056c-1.579-.317-2.668-1.739-2.633-3.26.442.246.949.394 1.486.411A3.289 3.289 0 0 1 5.612 6.6a9.32 9.32 0 0 0 6.766 3.43 3.286 3.286 0 0 1 5.594-2.993 6.583 6.583 0 0 0 2.086-.796 3.296 3.296 0 0 1-1.443 1.816A6.578 6.578 0 0 0 20.5 7.54a6.66 6.66 0 0 1-1.639 1.697z"/></symbol><symbol id="iconmonstr-shopping-cart-3" viewBox="0 0 24 24"><path d="M10 19.5a1.5 1.5 0 1 1-3 0 1.5 1.5 0 0 1 3 0zm3.5-1.5a1.5 1.5 0 1 0 0 3 1.5 1.5 0 0 0 0-3zm1.336-5l1.977-7H0l2.938 7h11.898zm4.969-10l-3.432 12H3.776l.839 2h13.239l3.474-12h1.929L24 3h-4.195z"/></symbol><symbol id="iconmonstr-x-mark-1" viewBox="0 0 24 24"><path d="M24 20.188l-8.315-8.209 8.2-8.282L20.188 0l-8.212 8.318L3.666.115 0 3.781l8.321 8.24-8.206 8.313L3.781 24l8.237-8.318 8.285 8.203z"/></symbol><symbol id="error" viewBox="0 0 24 24"><path d="M16.143 2L22 7.858v8.284L16.143 22H7.857L2 16.142V7.858L7.857 2h8.286zm.828-2H7.029L0 7.029v9.941L7.029 24h9.941L24 16.971V7.029L16.971 0zM10.5 6h3l-1 8h-1l-1-8zM12 18.25a1.25 1.25 0 1 1 0-2.5 1.25 1.25 0 0 1 0 2.5z"/></symbol><symbol id="search" viewBox="0 0 24 24"><path d="M23.809 21.646l-6.205-6.205a9.68 9.68 0 0 0 1.857-5.711C19.461 4.365 15.096 0 9.73 0 4.365 0 0 4.365 0 9.73c0 5.366 4.365 9.73 9.73 9.73a9.678 9.678 0 0 0 5.487-1.698L21.455 24l2.354-2.354zM2.854 9.73c0-3.792 3.085-6.877 6.877-6.877s6.877 3.085 6.877 6.877-3.085 6.877-6.877 6.877A6.884 6.884 0 0 1 2.854 9.73z"/></symbol></svg>