<svg xmlns="http://www.w3.org/2000/svg" width="5in" height="5in" viewBox="0 0 360.5 361.1"><circle cx="180.3" cy="180.5" r="161.9" fill="#be1e2d" stroke="#642c37" stroke-miterlimit="10" stroke-width="13"/><rect width="231.6" height="129.44" x="64.5" y="98.8" fill="#bcbec0" stroke="#58595b" stroke-miterlimit="10" stroke-width="4" rx="12"/><path fill="#f1f2f2" d="M104.3 131.7h14.9v54.66h-14.9z"/><path fill="#f1f2f2" d="M139.1 151.6v14.9H84.44v-14.9z"/><circle cx="249.7" cy="139.8" r="8.4" fill="#d7df23"/><circle cx="228.1" cy="159.1" r="8.4" fill="#39b54a"/><circle cx="269.9" cy="159.1" r="8.4" fill="#f7941d"/><circle cx="249.6" cy="176.9" r="8.4" fill="#00aeef"/><path fill="#58595b" d="M174 24.8h13.3v73.99H174z"/><path fill="#fff" d="M87.5 258.3v-5h9.8v14.6a19.4 19.4 0 0 1-8.7 1.7c-8.4 0-13.7-5.7-13.7-14.8s5.5-14.7 13.7-14.7c5.5 0 7.7 1.4 7.7 1.4v6.1a15.3 15.3 0 0 0-6.6-1.5c-4.5 0-7.6 2.9-7.6 8.7s2.6 8.8 6.8 8.8a10.9 10.9 0 0 0 2.4-.4v-4.9zm21 6.5l-1.2 4.2h-7.2l8.8-28.4h7.4l8.8 28.4h-7.2l-1.2-4.2zm1.3-5.3h5.6l-2.7-10.2zm42.7 9.5l-.8-15.5.2-1.9-5.4 17.4h-5.2l-5.4-17.1.2 1.6-.7 15.5H128l2.6-28.4h7.4l5.8 18.6 5.9-18.6h7.4l2.5 28.4zm11.5 0v-28.4h17.6v6h-10.7v5.5h9.4v5.4h-9.4v5.6h10.8v5.9zm33.9-22.4V269H191v-22.4h-6.4v-6h19.7v6zm18.8 12.1h-2.2V269h-6.9v-28.4h9.3c6.7 0 10.7 3.4 10.7 9.1a8.1 8.1 0 0 1-5.1 8l.8.9L229 269h-7.7zm0-4.6a3.5 3.5 0 0 0 3.8-3.8c0-2.3-1.3-3.7-3.5-3.7h-2.7v7.5zm14.4.7c0-9.3 5.7-14.7 13.3-14.7s13.3 5.4 13.3 14.7-5.7 14.8-13.3 14.8-13.3-5.4-13.3-14.8zm7.3 0c0 5.6 2.5 8.5 6.1 8.5s6-2.9 6-8.5-2.5-8.4-6-8.4-6.1 2.9-6.1 8.4zm46.4 14.2h-6.5l-10.1-17.3.3 2V269h-6.9v-28.4h6.6l10 17.3-.3-1.9v-15.4h6.9z"/></svg>